# xmcd
#
# Track frame offsets:
#	150
#	17742
#	36402
#	54207
#	73615
#	110262
#
# Disc length: 1810 seconds
#
# Revision: 1
# Processed by: cddbd v1.4b42PL1 Copyright (c) Steve Scherf et al.
# Submitted via: audiograbber 1.80
#
DISCID=47071006
DTITLE=N'Dea Davenport - Bring It On
DYEAR=1900
DGENRE=
TTITLE0=Bring It On (Album Radio Edit)
TTITLE1=Bring It On (Hex Hector 7" Mix)
TTITLE2=Bring It On DJ Premier RMX w/Guru)
TTITLE3=Bring It On (Tony Maserati Remix)
TTITLE4=Bring It On (Hex Hector 12" Vocal Remix)
TTITLE5=Feel No Pain
EXTD=
EXTT0=
EXTT1=
EXTT2=
EXTT3=
EXTT4=
EXTT5=
PLAYORDER=
